<svg width="227" height="42" viewBox="0 0 227 42" fill="none" xmlns="http://www.w3.org/2000/svg">
<g clip-path="url(#clip0_30219_30894)">
<path d="M47.3211 30.4583H43.7446V17.2898C43.7446 14.2562 42.4036 12.7624 39.6988 12.7624C38.447 12.7624 36.9494 13.1761 35.2057 14.0264C35.4741 14.7618 35.6082 15.7041 35.6082 16.8532V30.4583H32.0317V17.2668C32.0317 14.2792 30.6905 12.7624 27.9859 12.7624C26.8235 12.7624 25.3929 13.1071 23.7388 13.8195C23.7836 14.3022 23.8282 14.6699 23.8282 14.8767V30.4354H20.2517V14.2562C20.2517 13.7046 20.1623 12.8313 20.0059 11.5903C23.4259 10.2344 26.2201 9.54492 28.3882 9.54492C30.8695 9.54492 32.7247 10.1654 33.9093 11.4294C36.3012 10.1654 38.5142 9.54492 40.5481 9.54492C42.6941 9.54492 44.3706 10.1424 45.5552 11.3375C46.7399 12.5326 47.3435 14.2562 47.3435 16.4854V30.4123L47.3211 30.4583Z" fill="#202D66"/>
<path d="M13.3898 20.3004L5.74509 14.0723C-0.334905 7.59145 6.6392 3.70752 6.6392 3.70752C0.805093 5.615 0.0897995 10.5791 0.0897995 10.5791C-0.603141 15.3363 2.7945 17.7035 2.7945 17.7035L9.41097 23.1502C16.8098 29.6309 8.89684 35.5144 8.89684 35.5144C15.7815 34.5032 16.5415 28.7807 16.5415 28.7807C17.4804 23.8627 13.3674 20.2774 13.3674 20.2774L13.3898 20.3004Z" fill="#202D66"/>
<path d="M64.1533 27.034C64.1085 26.6434 64.0639 26.3905 64.0639 26.2066V19.7948C63.5497 20.2084 62.2309 20.6451 60.0851 21.1507C58.6546 21.4724 57.6263 21.8401 57.0226 22.2079C56.1285 22.7824 55.6814 23.5867 55.6814 24.6209C55.6814 26.6894 57.1344 27.7235 60.0179 27.7235C61.4709 27.7235 62.8569 27.4937 64.1533 27.034ZM67.931 29.4012C64.8909 30.4124 62.2533 30.9181 60.0179 30.9181C57.4921 30.9181 55.5251 30.4124 54.0497 29.4012C52.485 28.3439 51.7026 26.8501 51.7026 24.8967C51.7026 22.9433 52.4404 21.3346 53.8934 20.2774C54.9215 19.519 56.4862 18.9214 58.5428 18.4848C60.5992 18.0481 61.8734 17.7264 62.365 17.5425C63.4827 17.0829 64.0415 16.4164 64.0415 15.5431C64.0415 13.6816 62.7451 12.7623 60.1521 12.7623C58.6322 12.7623 56.8887 13.199 54.8993 14.0723L53.6699 11.2225C55.9274 10.1424 58.1627 9.59082 60.3756 9.59082C65.2262 9.59082 67.6405 11.7741 67.6405 16.1177V26.7813C67.6405 27.3098 67.7298 28.1601 67.9086 29.4012H67.931Z" fill="#202D66"/>
<path d="M84.2937 9.93562L83.2208 13.1531C82.483 12.9922 81.7006 12.9003 80.9183 12.9003C79.6219 12.9003 78.3255 13.1301 77.0736 13.5897C77.096 13.9804 77.1184 14.2562 77.1184 14.44V30.4123H73.5419V14.509C73.5419 13.9345 73.4301 12.9922 73.229 11.6592C76.4254 10.2344 79.1748 9.54492 81.4101 9.54492C82.3936 9.54492 83.3547 9.65984 84.3161 9.91263L84.2937 9.93562Z" fill="#202D66"/>
<path d="M98.4873 29.9983C96.5425 30.6878 94.9332 31.0095 93.6368 31.0095C89.9485 31.0095 88.1154 29.2628 88.1154 25.7467V13.1985L85.8579 13.0836V10.1879L88.1154 10.073V4.41943H91.6919V10.027H97.459V13.2215H91.6919V25.6088C91.6919 27.0566 92.4519 27.769 93.9942 27.769C94.9777 27.769 96.1626 27.5163 97.526 26.9876L98.4873 30.0211V29.9983Z" fill="#202D66"/>
<path d="M117.005 29.6084C115.195 30.4589 113.317 30.8724 111.328 30.8724C108.377 30.8724 105.94 29.9302 103.973 28.0458C101.939 26.0464 100.911 23.4494 100.911 20.2319C100.911 17.0145 101.828 14.5094 103.66 12.533C105.493 10.5566 107.908 9.56836 110.903 9.56836C112.937 9.56836 114.994 10.005 117.027 10.8783L115.955 13.866C114.122 13.1305 112.512 12.7628 111.104 12.7628C109.092 12.7628 107.528 13.5212 106.41 15.061C105.404 16.4169 104.89 18.1176 104.89 20.163C104.89 22.4152 105.561 24.2537 106.879 25.6786C108.131 27.0345 109.673 27.724 111.529 27.724C112.825 27.724 114.3 27.4023 115.977 26.7359L117.005 29.5856V29.6084Z" fill="#202D66"/>
<path d="M135.559 20.2544C135.559 18.0941 135.089 16.3475 134.173 14.9916C133.167 13.5207 131.759 12.7853 129.926 12.7853C128.093 12.7853 126.685 13.5207 125.679 14.9916C124.718 16.3475 124.248 18.1171 124.248 20.2544C124.248 22.3917 124.718 24.1612 125.679 25.5173C126.685 26.988 128.093 27.7235 129.926 27.7235C131.759 27.7235 133.167 26.988 134.173 25.5173C135.089 24.1612 135.559 22.3917 135.559 20.2544ZM139.538 20.2544C139.538 23.38 138.644 25.9539 136.855 27.9302C135.067 29.9297 132.742 30.9181 129.881 30.9181C127.02 30.9181 124.695 29.9297 122.93 27.9302C121.164 25.9308 120.27 23.38 120.27 20.2544C120.27 17.1289 121.164 14.5549 122.93 12.5785C124.695 10.579 127.02 9.59082 129.881 9.59082C132.742 9.59082 135.067 10.579 136.855 12.5785C138.644 14.5779 139.538 17.1289 139.538 20.2544Z" fill="#202D66"/>
<path d="M171.145 30.4583H167.568V17.2898C167.568 14.2562 166.227 12.7624 163.522 12.7624C162.271 12.7624 160.773 13.1761 159.029 14.0264C159.298 14.7618 159.432 15.7041 159.432 16.8532V30.4583H155.855V17.2668C155.855 14.2792 154.514 12.7624 151.81 12.7624C150.647 12.7624 149.217 13.1071 147.562 13.8195C147.607 14.3022 147.652 14.6699 147.652 14.8767V30.4354H144.075V14.2562C144.075 13.7046 143.986 12.8313 143.83 11.5903C147.25 10.2344 150.044 9.54492 152.212 9.54492C154.693 9.54492 156.548 10.1654 157.733 11.4294C160.125 10.1654 162.338 9.54492 164.372 9.54492C166.518 9.54492 168.194 10.1424 169.379 11.3375C170.564 12.5326 171.167 14.2562 171.167 16.4854V30.4123L171.145 30.4583Z" fill="#202D66"/>
<path d="M189.988 20.2084C189.988 18.0482 189.519 16.3245 188.602 15.0145C187.507 13.5207 185.942 12.7623 183.864 12.7623C182.701 12.7623 181.539 12.9921 180.354 13.4518C180.354 13.4747 180.354 13.6126 180.421 13.8425C180.466 14.0723 180.488 14.2561 180.488 14.394V27.0571C181.36 27.4937 182.388 27.7004 183.551 27.7004C187.842 27.7004 189.988 25.1956 189.988 20.1855V20.2084ZM193.967 20.2084C193.967 23.311 193.051 25.8848 191.195 27.8843C189.362 29.9068 186.993 30.9181 184.132 30.9181C182.969 30.9181 181.74 30.6882 180.466 30.2286V39.6741H176.889V13.6356C176.889 13.0841 176.8 12.2337 176.644 11.0617C179.192 10.0734 181.583 9.59082 183.841 9.59082C186.971 9.59082 189.43 10.579 191.24 12.5555C193.051 14.5319 193.945 17.0829 193.945 20.2084H193.967Z" fill="#202D66"/>
<path d="M205.479 30.2978C204.294 30.7115 203.243 30.9182 202.349 30.9182C199.756 30.9182 198.46 29.6083 198.46 26.9884V0.467285H202.036V26.2989C202.036 27.2871 202.439 27.7696 203.221 27.7696C203.69 27.7696 204.182 27.6548 204.652 27.4479L205.479 30.2978Z" fill="#202D66"/>
<path d="M226.333 10.0274L219.269 31.3087C218.554 33.4229 217.593 35.2613 216.363 36.7782C214.955 38.525 213.39 39.6279 211.669 40.1336L209.97 37.3987C212.809 36.5024 214.843 34.2732 216.095 30.734C215.246 30.5501 214.597 29.8606 214.15 28.6886L206.751 10.0044H210.797L217.034 26.9649H217.079L222.532 10.0044H226.355L226.333 10.0274Z" fill="#202D66"/>
</g>
<defs>
<clipPath id="clip0_30219_30894">
<rect width="226.333" height="42" fill="white"/>
</clipPath>
</defs>
</svg>
